<?xml version="1.0" standalone="no"?>
<!DOCTYPE svg PUBLIC "-//W3C//DTD SVG 20010904//EN"
 "http://www.w3.org/TR/2001/REC-SVG-20010904/DTD/svg10.dtd">
<svg version="1.0" xmlns="http://www.w3.org/2000/svg"
 width="1472.000000pt" height="1169.000000pt" viewBox="0 0 1472.000000 1169.000000"
 preserveAspectRatio="xMidYMid meet">

<g transform="translate(0.000000,1169.000000) scale(0.100000,-0.100000)"
fill="#000000" stroke="none">
<path d="M0 5845 l0 -5845 7360 0 7360 0 0 5845 0 5845 -3290 0 -3290 0 0 -64
c0 -48 -4 -65 -15 -70 -11 -4 -15 -22 -15 -71 0 -49 -4 -67 -15 -71 -10 -4
-15 -21 -15 -54 0 -30 -6 -52 -15 -60 -10 -9 -15 -32 -15 -76 0 -36 -4 -64
-10 -64 -5 0 -10 -19 -10 -43 0 -24 -7 -52 -15 -63 -8 -10 -15 -40 -15 -65 0
-32 -5 -49 -15 -53 -11 -4 -15 -22 -15 -71 0 -49 -4 -67 -15 -71 -11 -5 -15
-22 -15 -69 0 -43 -5 -66 -15 -75 -10 -8 -15 -30 -15 -61 0 -26 -4 -51 -10
-54 -5 -3 -10 -14 -10 -24 0 -16 12 -18 123 -20 192 -3 522 -20 595 -32 137
-21 201 -28 342 -39 80 -6 172 -18 205 -26 33 -7 63 -14 67 -14 4 0 17 18 28
40 12 23 30 50 40 60 11 11 23 38 26 60 4 23 18 58 32 78 13 20 31 59 39 87 8
27 21 57 30 66 8 9 23 39 33 67 11 27 31 67 45 87 14 21 25 44 25 53 0 8 12
29 28 47 15 17 35 46 44 64 9 17 30 36 45 42 30 12 118 6 137 -9 16 -13 48
-19 165 -32 58 -6 131 -22 166 -34 33 -13 83 -26 111 -29 27 -3 50 -6 52 -6 4
-1 2 -4461 -2 -4461 -2 0 -23 8 -47 17 -35 13 -81 16 -234 17 -171 0 -195 -2
-245 -21 -30 -12 -86 -29 -124 -38 -37 -8 -79 -24 -93 -35 -13 -10 -41 -24
-61 -31 -20 -7 -51 -23 -68 -36 -17 -12 -35 -23 -40 -23 -5 0 -31 -18 -59 -40
-27 -22 -54 -40 -58 -40 -13 0 -158 -149 -187 -191 -14 -21 -44 -62 -68 -93
-23 -30 -48 -68 -54 -83 -7 -15 -25 -48 -40 -72 -16 -25 -28 -52 -28 -62 0 -9
-13 -40 -29 -70 -16 -30 -34 -81 -41 -114 -6 -33 -20 -76 -30 -95 -28 -56 -44
-252 -37 -463 5 -166 8 -190 35 -277 17 -52 33 -111 37 -130 4 -19 20 -62 36
-95 16 -33 29 -67 29 -75 0 -9 16 -40 35 -70 19 -30 35 -59 35 -64 0 -4 11
-22 25 -40 48 -59 150 -189 172 -219 12 -16 36 -38 54 -49 18 -11 51 -38 73
-59 23 -22 62 -51 87 -64 25 -13 51 -30 58 -39 7 -8 29 -20 49 -27 20 -6 57
-23 82 -37 25 -14 76 -34 115 -43 38 -10 93 -24 120 -32 109 -31 447 -29 479
3 6 6 14 10 18 10 4 0 8 -407 8 -905 l0 -905 -22 -14 c-13 -8 -52 -20 -88 -27
-36 -6 -85 -22 -110 -34 -25 -12 -76 -28 -114 -34 -38 -7 -87 -21 -108 -32
-22 -11 -80 -27 -129 -35 -50 -8 -116 -23 -147 -34 -31 -12 -91 -25 -132 -31
-41 -6 -109 -21 -150 -33 -41 -13 -106 -27 -145 -31 -66 -6 -116 -14 -315 -50
-47 -9 -146 -20 -220 -25 -74 -6 -166 -15 -205 -21 -178 -26 -259 -30 -690
-34 -468 -3 -679 5 -795 30 -36 8 -144 19 -240 25 -180 11 -235 19 -329 45
-30 8 -104 20 -164 26 -59 6 -132 19 -160 28 -29 10 -90 24 -137 30 -47 7
-121 24 -165 37 -44 14 -117 32 -162 40 -45 8 -99 22 -120 33 -21 10 -74 24
-118 31 -44 7 -101 23 -126 36 -26 13 -79 30 -119 38 -40 9 -78 21 -86 27 -12
10 -14 157 -14 920 0 500 1 909 3 909 1 0 30 -10 62 -22 53 -19 80 -22 230
-22 148 0 179 3 240 23 39 12 97 28 129 37 32 8 80 25 105 38 25 13 62 31 81
40 19 9 51 28 70 41 19 14 57 39 83 57 47 32 202 179 241 228 10 13 28 39 39
58 12 19 31 46 44 60 13 14 23 30 23 37 0 7 12 30 26 51 15 21 33 56 41 78 7
22 21 48 29 58 9 9 25 54 35 98 11 45 28 102 40 127 26 57 40 185 41 383 1
247 -8 318 -54 465 -23 72 -46 137 -52 145 -7 8 -20 42 -31 75 -10 33 -32 75
-47 93 -15 18 -28 38 -28 45 0 7 -10 23 -21 37 -11 14 -30 41 -43 60 -13 19
-34 48 -47 63 -39 46 -192 197 -199 197 -4 0 -27 16 -51 35 -24 19 -49 35 -55
35 -6 0 -21 11 -34 24 -12 14 -37 28 -54 32 -17 3 -56 19 -86 35 -30 16 -84
34 -120 42 -36 8 -81 22 -100 32 -31 17 -59 19 -235 19 -169 1 -206 -2 -239
-17 -21 -9 -45 -17 -52 -17 -12 0 -14 342 -14 2230 0 2117 1 2230 18 2231 33
1 67 9 122 28 53 18 116 30 270 51 41 6 98 18 127 26 73 21 117 11 148 -35 14
-19 25 -41 25 -47 0 -6 9 -19 19 -28 11 -10 23 -31 26 -47 4 -15 18 -45 31
-65 14 -20 32 -57 41 -83 8 -25 23 -55 32 -66 10 -11 26 -42 36 -70 10 -27 26
-59 35 -70 10 -11 23 -38 30 -60 7 -22 21 -51 32 -64 10 -14 27 -44 38 -69 16
-34 24 -43 37 -38 28 11 149 26 283 36 117 8 165 14 315 39 81 13 387 31 536
31 153 0 179 11 179 74 0 27 6 48 15 56 9 8 15 30 15 60 0 30 6 52 15 60 10 8
15 31 15 70 0 39 5 62 15 70 9 8 15 30 15 57 0 25 6 51 14 58 8 9 14 37 15 71
0 32 5 62 11 68 5 5 10 31 10 57 0 32 5 49 15 53 11 4 15 22 15 71 0 49 4 67
15 71 10 4 15 21 15 54 0 30 6 52 15 60 10 9 15 32 15 75 0 47 4 64 15 69 8 3
15 15 15 26 l0 20 -3800 0 -3800 0 0 -5845z"/>
</g>
</svg>
